<svg width="27" height="27" viewBox="0 0 27 27" fill="none" xmlns="http://www.w3.org/2000/svg">
<path fill-rule="evenodd" clip-rule="evenodd" d="M7.53773 13.2156C7.37523 13.3768 7.37565 13.6381 7.53773 13.7989L12.5715 18.7873C12.9644 19.1798 13.5532 18.5914 13.1607 18.1989L9.1669 14.211C9.00398 14.0481 9.06107 13.9164 9.28523 13.9164H19.3373C19.5652 13.9164 19.7502 13.7318 19.7502 13.5002C19.7502 13.2702 19.5615 13.0839 19.3373 13.0839H9.28523C9.0569 13.0839 9.00523 12.951 9.1669 12.7898L13.1607 8.80142C13.5532 8.40892 12.9644 7.82058 12.5715 8.21308L7.53773 13.2156Z" fill="white"/>
<path d="M26 13.5C26 6.59644 20.4036 1 13.5 1C6.59644 1 1 6.59644 1 13.5C1 20.4036 6.59644 26 13.5 26C20.4036 26 26 20.4036 26 13.5Z" stroke="white"/>
</svg>
