<svg width="32" height="32" viewBox="0 0 32 32" fill="none" xmlns="http://www.w3.org/2000/svg">
<path fill-rule="evenodd" clip-rule="evenodd" d="M8.84528 15.6586C8.65028 15.8521 8.65078 16.1656 8.84528 16.3586L14.8858 22.3446C15.3573 22.8156 16.0638 22.1096 15.5928 21.6386L10.8003 16.8531C10.6048 16.6576 10.6733 16.4996 10.9423 16.4996H23.0048C23.2783 16.4996 23.5003 16.2781 23.5003 16.0001C23.5003 15.7241 23.2738 15.5006 23.0048 15.5006H10.9423C10.6683 15.5006 10.6063 15.3411 10.8003 15.1476L15.5928 10.3616C16.0638 9.8906 15.3573 9.1846 14.8858 9.6556L8.84528 15.6586Z" fill="black"/>
<path d="M31 16C31 7.71573 24.2843 1 16 1C7.71573 1 1 7.71573 1 16C1 24.2843 7.71573 31 16 31C24.2843 31 31 24.2843 31 16Z" stroke="black"/>
</svg>
