<svg xmlns="http://www.w3.org/2000/svg" xmlns:xlink="http://www.w3.org/1999/xlink" xml:space="preserve" version="1.1" style="shape-rendering:geometricPrecision;text-rendering:geometricPrecision;image-rendering:optimizeQuality;" viewBox="0 0 2540 3175" x="0px" y="0px" fill-rule="evenodd" clip-rule="evenodd"><defs><style type="text/css">
   
    .fil0 {fill:black;fill-rule:nonzero}
   
  </style></defs><g><path class="fil0" d="M914 702c40,-39 40,-104 0,-143 -39,-40 -104,-40 -143,0l-640 639c-39,40 -39,104 0,144l640 639c39,40 104,40 143,0 40,-39 40,-104 0,-143l-466 -466 1889 0c56,0 101,-46 101,-102 0,-56 -45,-102 -101,-102l-1889 0 466 -466z"/></g><text x="0" y="2555" fill="#000000" font-size="5px" font-weight="bold" font-family="'Helvetica Neue', Helvetica, Arial-Unicode, Arial, Sans-serif">Created by wakwau</text><text x="0" y="2560" fill="#000000" font-size="5px" font-weight="bold" font-family="'Helvetica Neue', Helvetica, Arial-Unicode, Arial, Sans-serif">from the Noun Project</text></svg>