<svg height='100px' width='100px'  fill="#000000" version="1.1" xmlns:rdf="http://www.w3.org/1999/02/22-rdf-syntax-ns#" xmlns:cc="http://creativecommons.org/ns#" xmlns:sodipodi="http://sodipodi.sourceforge.net/DTD/sodipodi-0.dtd" xmlns:dc="http://purl.org/dc/elements/1.1/" xmlns:inkscape="http://www.inkscape.org/namespaces/inkscape" xmlns:svg="http://www.w3.org/2000/svg" xmlns="http://www.w3.org/2000/svg" xmlns:xlink="http://www.w3.org/1999/xlink" x="0px" y="0px" viewBox="0 0 100 100" enable-background="new 0 0 100 100" xml:space="preserve"><path d="M96.838,46.587c-1-0.164-1.066-0.31-1.526-3.382c-1.125-7.502-3.799-13.911-8.574-20.553l-1.577-2.196l0.592-0.775
	c0.513-0.671,0.592-0.971,0.592-2.218c0-1.129-0.098-1.573-0.447-2.045c-1.241-1.676-3.293-2.065-5.211-0.987l-1.024,0.576
	l-1.142-0.869c-4.406-3.355-7.743-5.247-12.241-6.939c-3.448-1.297-7.502-2.335-10.246-2.623c-2.221-0.233-2.199-0.222-2.36-1.292
	c-0.381-2.543-2.714-3.909-5.111-2.993c-1.35,0.516-1.866,1.259-2.328,3.354c-0.115,0.521-0.252,0.587-1.674,0.805
	c-5.993,0.92-9.179,1.843-13.765,3.984c-3.067,1.433-5.539,2.917-8.507,5.113l-2.367,1.75l-0.835-0.506
	c-1.071-0.648-2.744-0.685-3.917-0.087c-1.811,0.924-2.353,3.21-1.234,5.211l0.578,1.034l-0.602,0.776
	c-4.836,6.241-8.183,14.11-9.313,21.899C4.41,44.909,4.15,46.027,4.02,46.108s-0.584,0.204-1.008,0.273
	c-1.23,0.202-2.14,0.89-2.624,1.984c-1.07,2.419,0.313,4.919,2.938,5.312c1.067,0.16,0.982-0.023,1.374,2.975
	c0.973,7.463,4.208,14.971,9.41,21.843l1.027,1.356l-0.574,0.867c-1.234,1.864-0.489,4.591,1.469,5.375
	c1.144,0.457,2.494,0.423,3.5-0.091c0.461-0.234,0.965-0.427,1.12-0.427c0.156,0,1.216,0.652,2.356,1.449
	c6.544,4.572,12.687,7.094,20.111,8.255c3.627,0.569,3.416,0.494,3.416,1.208c0,0.725,0.62,2.045,1.211,2.58
	c0.222,0.201,0.736,0.514,1.144,0.697c0.854,0.383,2.227,0.294,3.2-0.21c0.829-0.428,1.627-1.68,1.812-2.841
	c0.08-0.508,0.257-0.953,0.393-0.992c0.134-0.038,1.302-0.229,2.593-0.423c7.535-1.132,14.315-4.017,20.978-8.922l1.339-0.987
	l1.189,0.545c2.768,1.267,5.356-0.027,5.585-2.792c0.075-0.898-0.007-1.387-0.354-2.104c-0.249-0.514-0.453-1.047-0.453-1.187
	s0.842-1.452,1.869-2.916c4.549-6.484,7.352-13.346,8.372-20.497c0.33-2.301,0.387-2.455,0.927-2.457
	c0.257-0.001,0.974-0.239,1.594-0.527c0.917-0.427,1.207-0.698,1.543-1.438C100.622,49.488,99.418,47.01,96.838,46.587z
	 M51.84,11.024c0.211-0.212,2.65,0.077,6.007,0.712c5.821,1.102,12.498,4.305,17.168,8.237c0.812,0.684,1.51,1.342,1.548,1.461
	c0.04,0.12-3.476,3.697-7.811,7.951c-4.336,4.254-7.962,7.73-8.06,7.725c-0.098-0.006-0.514-0.256-0.924-0.557
	c-1.239-0.905-4.105-2.175-6.114-2.708l-1.891-0.502l-0.057-11.066C51.677,16.152,51.736,11.127,51.84,11.024z M24.895,20.031
	c5.27-4.2,10.75-6.861,16.841-8.176c3.12-0.674,6.292-1.075,6.539-0.828c0.101,0.101,0.158,5.167,0.128,11.258L48.348,33.36
	l-2.003,0.49c-1.102,0.27-2.538,0.735-3.19,1.034c-0.654,0.299-1.785,0.92-2.513,1.381l-1.326,0.837l-6.477-6.264
	c-3.562-3.445-7.185-6.985-8.05-7.866l-1.573-1.601L24.895,20.031z M12.066,40.643c0.73-2.808,1.715-5.478,2.915-7.898
	c1.243-2.507,3.798-6.426,5.164-7.916l0.961-1.05l7.938,7.926l7.938,7.926l-0.639,0.933c-1.28,1.867-2.226,4.16-2.718,6.589
	l-0.238,1.174l-11.131,0.055c-7.187,0.036-11.177-0.02-11.262-0.156C10.79,47.894,11.514,42.767,12.066,40.643z M21.448,76.354
	c-0.335,0.082-2.704-2.758-4.143-4.966c-1.529-2.346-3.687-6.851-4.477-9.343c-0.853-2.689-1.685-6.885-1.77-8.916l-0.067-1.6
	l11.159-0.057c8.824-0.043,11.175,0.002,11.236,0.214c0.042,0.148,0.277,1.122,0.521,2.166c0.496,2.119,1.275,3.881,2.558,5.787
	l0.862,1.281l-7.809,7.685C25.224,72.833,21.592,76.32,21.448,76.354z M48.365,89.174c-0.127-0.019-0.519-0.067-0.872-0.108
	c-8.373-0.997-14.056-2.999-19.68-6.933c-2.777-1.944-3.48-2.558-3.48-3.037c0-0.283,2.654-3.093,7.706-8.156l7.705-7.725
	l1.42,0.832c1.893,1.108,4.554,2.117,5.967,2.263c0.631,0.065,1.18,0.225,1.221,0.354c0.04,0.131,0.111,5.254,0.158,11.389
	C48.571,85.97,48.529,89.196,48.365,89.174z M41.997,59.858c-1.47-1.163-2.478-2.472-3.452-4.486
	c-0.902-1.868-1.19-3.235-1.19-5.657c0-5.282,3.366-9.923,8.539-11.772c1.168-0.418,1.809-0.497,4.056-0.5
	c3.102-0.003,4.628,0.405,6.827,1.827c5.512,3.562,7.477,10.384,4.665,16.202c-1.685,3.487-5.396,6.382-9.022,7.035
	C48.604,63.195,45.084,62.3,41.997,59.858z M75.615,79.493c-0.321,0.324-1.258,1.087-2.08,1.696
	c-4.932,3.652-9.897,5.874-15.741,7.042c-2.792,0.558-5.865,0.962-6.034,0.792c-0.058-0.057-0.104-5.112-0.104-11.236V66.654
	l2.274-0.563c1.786-0.441,2.762-0.84,4.536-1.851l2.262-1.288l5.185,5.281c2.851,2.906,6.332,6.495,7.736,7.977l2.552,2.694
	L75.615,79.493z M88.926,53.504c-0.205,2.323-1.062,6.438-1.836,8.818c-0.794,2.44-2.821,6.704-4.068,8.558
	c-0.503,0.746-1.58,2.244-2.395,3.33c-0.815,1.085-1.556,1.975-1.646,1.975c-0.474,0-15.798-15.115-15.796-15.581
	c0-0.177,0.35-0.898,0.777-1.604c1.322-2.178,1.801-3.431,2.511-6.563l0.134-0.587h11.232h11.232L88.926,53.504z M82.13,48.815
	c-3.904-0.025-8.97-0.098-11.256-0.16l-4.155-0.113l-0.573-2.264c-0.591-2.332-0.968-3.229-2.279-5.408l-0.763-1.268l6.616-6.524
	c3.638-3.588,7.268-7.096,8.066-7.796l1.45-1.272l0.615,0.739c1.285,1.545,3.807,5.293,4.735,7.036
	c2.437,4.572,3.48,8.318,4.537,16.276l0.105,0.8L82.13,48.815z"></path><path d="M52.621,45.85c0.119,0.013,1.176-0.943,2.348-2.124L57.1,41.58l-0.533-0.446c-0.802-0.669-3.4-1.846-4.43-2.005
	l-0.908-0.141v3.188v3.188l0.588,0.232C52.14,45.723,52.501,45.838,52.621,45.85z"></path><path d="M47.197,45.873c0.076,0,0.486-0.145,0.912-0.323l0.773-0.323v-3.093c0-3.522,0.115-3.357-1.92-2.752
	c-1.084,0.322-2.812,1.207-3.729,1.908c-0.402,0.308-0.33,0.411,1.704,2.452C46.104,44.914,47.121,45.873,47.197,45.873z"></path><path d="M42.165,48.861c3.019,0,3.106-0.013,3.289-0.48c0.164-0.421-0.08-0.75-1.978-2.669c-1.191-1.203-2.231-2.188-2.312-2.188
	c-0.47,0-2.101,3.841-2.101,4.948C39.062,48.831,39.308,48.861,42.165,48.861z"></path><path d="M45.907,52.789l-0.33-0.79l-0.33-0.79h-3.092c-3.512,0-3.354-0.105-2.771,1.856c0.333,1.118,1.217,2.882,1.774,3.533
	c0.175,0.205,0.378,0.374,0.45,0.374c0.072,0,1.069-0.941,2.215-2.092L45.907,52.789z"></path><path d="M45.532,56.586c-2.014,2.007-2.176,2.227-1.831,2.485c0.73,0.549,2.423,1.33,3.529,1.628
	c0.615,0.165,1.238,0.307,1.385,0.315c0.202,0.011,0.267-0.757,0.267-3.164v-3.18l-0.57-0.144
	C47.801,54.4,47.51,54.616,45.532,56.586z"></path><path d="M54.631,56.426c-2.1-2.107-2.185-2.167-2.784-1.94l-0.618,0.232v3.155c0,1.736,0.073,3.154,0.161,3.153
	c0.543-0.01,2.594-0.693,3.534-1.18C57.071,58.736,57.085,58.888,54.631,56.426z"></path><path d="M54.634,51.422l-0.218,0.574c-0.206,0.542-0.097,0.695,1.961,2.76c2.174,2.183,2.18,2.186,2.543,1.722
	c0.645-0.825,1.553-2.783,1.825-3.934l0.265-1.122h-3.188H54.634z"></path><path d="M54.431,47.83c0,0.083,0.095,0.397,0.209,0.697l0.208,0.548h3.101c2.122,0,3.101-0.075,3.101-0.236
	c0-0.747-0.784-3.046-1.437-4.213l-0.757-1.354l-2.212,2.204C55.427,46.688,54.431,47.747,54.431,47.83z"></path><path d="M52.908,52.316c0.901-1.266,0.943-3.325,0.092-4.496c-0.564-0.774-2.113-1.521-3.15-1.517
	c-2.579,0.011-4.308,2.972-3.108,5.324c0.423,0.828,1.227,1.537,2.17,1.915C50.184,54.052,52.089,53.467,52.908,52.316z"></path></svg>