<svg width="61" height="77" viewBox="0 0 61 77" fill="none" xmlns="http://www.w3.org/2000/svg">
<path fill-rule="evenodd" clip-rule="evenodd" d="M9.9542 61.6833C9.13423 61.6833 8.47195 62.3707 8.47195 63.2193V64.3129C8.47195 65.1598 9.13423 65.8438 9.9542 65.8438H51.0441C51.8641 65.8438 52.5297 65.1615 52.5297 64.3129V63.2193C52.5297 62.3724 51.8658 61.6833 51.0441 61.6833H9.9542ZM9.9542 51.6242C9.13423 51.6242 8.47195 52.3064 8.47195 53.155V54.2487C8.47195 55.0955 9.13423 55.7795 9.9542 55.7795H51.0441C51.8641 55.7795 52.5297 55.0972 52.5297 54.2487V53.155C52.5297 52.3082 51.8658 51.6242 51.0441 51.6242H9.9542ZM35.7933 10.4997C34.9767 10.4997 34.311 11.1837 34.311 12.0305V15.3115C34.311 16.1584 34.975 16.8441 35.7933 16.8441H51.0441C51.8641 16.8441 52.5297 16.1601 52.5297 15.3115V12.0305C52.5297 11.1837 51.8658 10.4997 51.0441 10.4997H35.7933ZM4.27083 0C1.91382 0 0 1.9748 0 4.40901V72.5858C0 75.0218 1.91216 77 4.27083 77H56.7308C59.0878 77 61 75.0218 61 72.5858V4.40901C61 1.9748 59.0878 0 56.7308 0H4.27083ZM5.99045 3.28105H55.0112C57.0329 3.28105 57.823 4.09874 57.823 6.18496V70.8116C57.823 72.8978 57.0313 73.7155 55.0112 73.7155H5.99045C3.97039 73.7155 3.17698 72.8961 3.17698 70.8116V6.18496C3.17698 4.09874 3.97039 3.28105 5.99045 3.28105Z" fill="white"/>
</svg>
