<svg xmlns="http://www.w3.org/2000/svg" viewBox="0 0 64 80" x="0px" y="0px"><g><path d="M33.017,22H39V33.435A29.444,29.444,0,0,1,33.017,22ZM41,22h5.983A29.444,29.444,0,0,1,41,33.435Zm7-7.728A30,30,0,0,1,47.449,20H41V13h7ZM40,4.141a6.18,6.18,0,0,1,2.974,4.927A8.179,8.179,0,0,0,37.528,7h-.016A6.182,6.182,0,0,1,40,4.141ZM37,9.472c0-.16.019-.315.03-.472h.5a6.2,6.2,0,0,1,4.579,2H37ZM32,13h7v7H32.551A30,30,0,0,1,32,14.272ZM13,4.607V4h.607L26.56,16.026,25.026,17.56ZM26,21.586,24.914,20.5l.793-.793,3-3,.793-.793.586.586c.021.311.038.622.068.932ZM30.5,24a1.5,1.5,0,0,1,0-3h.219q.327,1.523.8,3ZM16.644,18.058l9.09,9.09-3.307-.131-9.248-9.252a2.986,2.986,0,0,0-1.7-.85L9,16.561A6.987,6.987,0,0,1,11.676,16,7.075,7.075,0,0,1,16.644,18.058Zm-2.4,28.168L9.629,48.071a1,1,0,0,0-.524,1.376l2,4a1.018,1.018,0,0,0,.34.385L13.652,55.3l-1.573,2.622L10.848,55.47,6.781,48.963A1,1,0,0,1,7,47.659l7.982-6.53a1,1,0,0,0,.367-.762A1,1,0,0,0,15,39.6,6.974,6.974,0,0,1,12.779,36L10.227,25.787A3.991,3.991,0,0,0,13,22H11a2,2,0,0,1-2,2v.011a.991.991,0,0,0-.895.542L5.881,29a1,1,0,0,1-1.21.5l-.554-.184,1.57-10.21a1,1,0,0,1,.394-.649l0,0a.988.988,0,0,1,.733-.185L11.2,18.9a.989.989,0,0,1,.567.283l9.524,9.528a1,1,0,0,0,.667.292l9.416.375-6.743,2.7a1,1,0,0,0-.558,1.3l3.578,8.945a20.15,20.15,0,0,1-4.24-.061q.516-.562.994-1.159l.377-.471-1.56-1.25-.378.471A21.038,21.038,0,0,1,14.244,46.226ZM28,60H25.281l.689-2.758a.99.99,0,0,0-.012-.529l-2.966-9.887-.145-2.642q1.072.147,2.153.189V46a1.01,1.01,0,0,0,.035.263L28,57.134Zm-.583-13.117a1.459,1.459,0,0,1,.445-1.78L29.6,43.8a1,1,0,0,0,.329-1.171L26.3,33.557l8.057-3.222q.768,1.3,1.665,2.536L31.553,35.1a1,1,0,0,0-.482,1.266l3.564,8.908ZM36.986,40a1,1,0,0,0-.288.043l-1.788.539-1.639-4.1,4-2c.636.767,1.308,1.511,2.022,2.224a1,1,0,0,0,1.414,0c.453-.452.884-.92,1.306-1.394A14.02,14.02,0,0,0,42.933,40Zm3.225,17.386A1,1,0,0,0,40,58v2H36.388l.507-1.521,6.894-8.865a1,1,0,0,0,.125-1.02L40.983,42h2.9a14.25,14.25,0,0,0,2.3,2.993l.752,3.754ZM57.054,46.405,59,58.083V60H56.388l.56-1.684a.979.979,0,0,0,.032-.512l-2-10a1,1,0,0,0-.716-.769l-1.354-.369A12.118,12.118,0,0,1,44,35H42.283a31.728,31.728,0,0,0,3.578-5.049l.244.01a8.109,8.109,0,0,1,1.694.246A8.213,8.213,0,0,1,54,38.176V42a1,1,0,0,0,.2.6Zm.619-9.7-1.754-4.094a1,1,0,0,0-1.366-.5l-.41.205a10.242,10.242,0,0,0-1.559-1.756l1.079-1.438a2.791,2.791,0,0,1,4.954,1.056l1.156,9.1A6.044,6.044,0,0,1,57.673,36.7Z"/></g><text x="0" y="79" fill="#000000" font-size="5px" font-weight="bold" font-family="'Helvetica Neue', Helvetica, Arial-Unicode, Arial, Sans-serif">Created by mynamepong</text><text x="0" y="84" fill="#000000" font-size="5px" font-weight="bold" font-family="'Helvetica Neue', Helvetica, Arial-Unicode, Arial, Sans-serif">from the Noun Project</text></svg>