<svg width="80" height="78" viewBox="0 0 80 78" fill="none" xmlns="http://www.w3.org/2000/svg">
<path d="M50.1328 49.3055C50.7551 49.999 50.6662 51.126 49.955 51.7328C44.7105 56.154 41.7771 62.5691 41.7771 69.331H18.6656C18.6656 62.6558 15.5545 56.154 10.221 51.5594C3.0209 45.3177 -0.623607 36.4753 0.0875165 27.1127C1.24309 12.7221 13.2433 1.01888 28.088 0.0652803C34.9326 -0.368172 41.5105 1.36564 47.1105 5.00664C47.9106 5.52678 48.1772 6.65376 47.555 7.43397C47.0217 8.21418 45.8661 8.47425 45.0661 7.86742C40.0882 4.57318 34.3103 3.09945 28.2658 3.5329C15.1989 4.3998 4.62093 14.716 3.55424 27.4595C2.93201 35.6951 6.13206 43.5839 12.4433 48.9587C16.1767 52.2529 19.0212 56.2407 20.5323 60.6619H39.5549C41.066 56.2407 43.8216 52.2529 47.4661 49.1321C48.355 48.5252 49.5106 48.6119 50.1328 49.3055ZM24.8879 76.2662C24.8879 77.2198 25.688 78 26.6658 78H33.777C34.7548 78 35.5548 77.2198 35.5548 76.2662V72.7986H24.8879V76.2662ZM26.6658 34.1346L20.3545 38.4692C19.9101 38.8159 19.6434 39.3361 19.6434 39.8562C19.6434 40.3763 19.9101 40.9832 20.3545 41.2432L26.6658 45.5778C26.9324 45.7511 27.288 45.9245 27.7324 45.9245H67.5553V33.7879H27.6435C27.288 33.7879 26.9324 33.8746 26.6658 34.1346ZM78.2222 33.7879H71.111V45.9245H78.2222C79.2 45.9245 80 45.1443 80 44.1907V35.5217C80 34.5681 79.2 33.7879 78.2222 33.7879ZM30.2214 8.64764C18.4878 8.64764 8.88767 18.0102 8.88767 29.4533C8.88767 30.4069 9.68768 31.1872 10.6655 31.1872C11.6433 31.1872 12.4433 30.4069 12.4433 29.4533C12.4433 19.9174 20.4434 12.1153 30.2214 12.1153C31.1992 12.1153 31.9992 11.335 31.9992 10.3814C31.9992 9.42785 31.1992 8.64764 30.2214 8.64764ZM59.5552 9.51454C56.7996 9.51454 54.2218 10.6415 52.3551 12.5487C51.7329 13.2422 51.7329 14.3692 52.444 14.976C53.1551 15.6696 54.3107 15.5829 54.9329 14.8893C56.0885 13.6757 57.7774 12.8955 59.4663 12.8955C62.933 12.8955 65.6886 15.5829 65.6886 18.9638C65.6886 22.3447 62.933 25.0321 59.4663 25.0321H28.4436C27.4658 25.0321 26.6658 25.8123 26.6658 26.7659C26.6658 27.7195 27.4658 28.4998 28.4436 28.4998H59.5552C64.9775 28.4998 69.3332 24.2519 69.3332 18.9638C69.3332 13.6757 64.9775 9.51454 59.5552 9.51454ZM31.9992 19.0505C31.9992 20.0041 32.7992 20.7843 33.777 20.7843H47.9995C48.9772 20.7843 49.7773 20.0041 49.7773 19.0505C49.7773 18.0969 48.9772 17.3167 47.9995 17.3167H33.777C32.7992 17.3167 31.9992 18.0969 31.9992 19.0505Z" fill="#F4F4F4"/>
</svg>
