<svg width="104" height="118" viewBox="0 0 104 118" fill="none" xmlns="http://www.w3.org/2000/svg">
<mask id="path-1-inside-1" fill="white">
<path d="M52.7472 27.7938H42.9648V45.4506C47.5681 40.3206 50.9092 34.2902 52.7472 27.7938V27.7938ZM39.6947 27.7938H29.9122C31.7503 34.2902 35.0913 40.3206 39.6947 45.4506V27.7938ZM28.2494 15.861C28.2489 18.8296 28.5506 21.7915 29.1503 24.7056H39.6947V13.8969H28.2494V15.861ZM41.3297 0.217718C39.9265 1.01818 38.7506 2.12904 37.9035 3.45445C37.0563 4.77986 36.5633 6.28002 36.4671 7.8255C38.9197 5.76512 42.089 4.62857 45.3716 4.6323H45.3977C44.5646 2.79484 43.1417 1.25073 41.3297 0.217718V0.217718ZM46.2349 8.44931C46.2349 8.20226 46.2038 7.96292 46.1858 7.7205H45.3683C43.9618 7.71658 42.5698 7.98913 41.2808 8.52079C39.9919 9.05246 38.8342 9.83161 37.8814 10.8087H46.2349V8.44931ZM54.4101 13.8969H42.9648V24.7056H53.5092C54.1089 21.7915 54.4106 18.8296 54.4101 15.861V13.8969ZM85.4759 0.937268V0H84.4834L63.3047 18.5693L65.8129 20.938L85.4759 0.937268ZM64.2203 27.1545L65.996 25.4776L64.6994 24.2532L59.7943 19.6209L58.4977 18.3964L57.5395 19.3012C57.5052 19.7815 57.4774 20.2617 57.4284 20.7403L64.2203 27.1545ZM56.8626 30.882C57.5131 30.882 58.1369 30.638 58.5969 30.2036C59.0568 29.7693 59.3152 29.1801 59.3152 28.5658C59.3152 27.9516 59.0568 27.3624 58.5969 26.9281C58.1369 26.4937 57.5131 26.2497 56.8626 26.2497H56.5046C56.1481 27.8175 55.7121 29.3616 55.1965 30.882H56.8626ZM79.5178 21.707L64.6553 35.7428L70.0623 35.5405L85.1832 21.2545C85.9337 20.5428 86.9096 20.082 87.9628 19.9421L92.0161 19.3954C90.6323 18.8374 89.1453 18.543 87.6407 18.5292C84.5957 18.5376 81.677 19.6794 79.5178 21.707ZM83.4419 65.2012L90.9876 68.05C91.1978 68.1292 91.3883 68.2487 91.5471 68.401C91.7058 68.5533 91.8294 68.735 91.9099 68.9347C91.9905 69.1345 92.0262 69.3478 92.0149 69.5612C92.0037 69.7747 91.9456 69.9836 91.8444 70.1747L88.5743 76.3511C88.4459 76.5909 88.2545 76.7956 88.0184 76.9456L84.4099 79.2123L86.9818 83.261L88.9945 79.4748L95.6442 69.4274C95.8543 69.1081 95.9338 68.7274 95.8679 68.3567C95.802 67.9861 95.5951 67.6508 95.2862 67.4139L82.2352 57.3309C82.0503 57.1881 81.9007 57.0087 81.797 56.8054C81.6933 56.6022 81.6381 56.3799 81.6352 56.1543C81.6333 55.9296 81.6834 55.7071 81.782 55.5026C81.8805 55.298 82.0252 55.1163 82.2058 54.97C83.9965 53.5168 85.2653 51.5745 85.8372 49.4112L90.0099 33.6413C88.6969 33.2439 87.551 32.4641 86.7364 31.4135C85.9219 30.363 85.4806 29.0958 85.4759 27.7938H88.746C88.746 28.6128 89.0905 29.3983 89.7038 29.9775C90.317 30.5566 91.1488 30.882 92.0161 30.882V30.899C92.3184 30.8957 92.6156 30.9723 92.8743 31.1202C93.1329 31.2681 93.3425 31.4814 93.4794 31.7359L97.1158 38.6025C97.2922 38.9343 97.5893 39.195 97.9526 39.3368C98.3159 39.4786 98.7212 39.492 99.0942 39.3745L100 39.0904L97.433 23.3252C97.3661 22.9241 97.1347 22.5641 96.7888 22.3231C96.4452 22.0816 96.0141 21.9788 95.5903 22.0374L88.419 23.0071C88.0676 23.0528 87.7418 23.2063 87.4919 23.4441L71.9198 38.1563C71.6291 38.4306 71.2398 38.5916 70.8292 38.6071L55.4336 39.1862L66.4587 43.3552C66.6582 43.4304 66.8401 43.542 66.994 43.6836C67.1478 43.8251 67.2706 43.994 67.3553 44.1804C67.44 44.3668 67.485 44.5671 67.4877 44.77C67.4905 44.9728 67.4508 45.1742 67.3711 45.3626L61.5209 59.1745C63.8288 59.3735 66.1525 59.3419 68.4535 59.0804C67.891 58.5018 67.3493 57.9053 66.8282 57.2907L66.2118 56.5635L68.7625 54.6333L69.3805 55.3606C73.0909 59.7308 77.9348 63.1207 83.4419 65.2012V65.2012ZM60.9502 86.4696H65.3959L64.2694 82.211C64.1973 81.9421 64.2041 81.6597 64.289 81.3941L69.1385 66.1276L69.3756 62.0481C68.2071 62.1994 67.0337 62.2967 65.8554 62.3399V64.8522C65.8553 64.9894 65.8361 65.1259 65.7982 65.2583L60.9502 82.0442V86.4696ZM61.9035 66.2156C62.1336 65.748 62.1868 65.2201 62.0544 64.7199C61.922 64.2196 61.6119 63.7775 61.1759 63.4671L58.3342 61.4552C58.0465 61.2516 57.8379 60.9641 57.7406 60.6372C57.6434 60.3104 57.6629 59.9624 57.7962 59.647L63.7298 45.639L50.5563 40.6639C49.7191 42.0021 48.8117 43.3074 47.8339 44.5797L55.1409 48.0215C55.5081 48.1945 55.7929 48.4916 55.9389 48.8537C56.0849 49.2158 56.0813 49.6166 55.929 49.9763L50.1017 63.7312L61.9035 66.2156ZM46.2577 55.5876C46.4173 55.5879 46.5759 55.6103 46.7286 55.654L49.6521 56.4863L52.3319 50.1555L45.7918 47.0673C44.7519 48.2516 43.6531 49.4004 42.4857 50.5013C42.1791 50.7908 41.7633 50.9534 41.3297 50.9534C40.8962 50.9534 40.4804 50.7908 40.1737 50.5013C39.4331 49.8034 38.7284 49.0808 38.0384 48.3489C37.9792 50.8253 37.4704 53.2737 36.5341 55.5876H46.2577ZM40.9847 82.4333C41.2082 82.7043 41.3296 83.0379 41.3297 83.3814V86.4696H47.2355L46.4065 84.121L35.1345 70.4326C34.9528 70.2121 34.8377 69.9491 34.8017 69.6718C34.7657 69.3944 34.8101 69.113 34.9302 68.8576L39.7225 58.6758H34.9808C33.9499 60.367 32.6852 61.9211 31.2202 63.2973L29.9907 69.0938L40.9847 82.4333ZM13.4457 65.4776L10.2639 83.5096V86.4696H14.5346L13.619 83.8693C13.5275 83.6149 13.5094 83.342 13.5667 83.0788L16.8368 67.6378C16.896 67.3567 17.0369 67.0968 17.2437 66.8871C17.4504 66.6774 17.7149 66.5262 18.0075 66.4503L20.2213 65.8806C24.402 64.7967 28.0908 62.4478 30.7223 59.1941C33.3537 55.9403 34.7825 51.9613 34.7895 47.8671H37.5969C35.3825 45.4546 33.4231 42.8435 31.7467 40.0709L31.3478 40.0864C30.4129 40.1204 29.4845 40.2477 28.578 40.4662C25.6784 41.1581 23.1063 42.7444 21.2697 44.9734C19.433 47.2025 18.4368 49.9468 18.4391 52.7712V58.6758C18.4391 59.0099 18.3244 59.335 18.1121 59.6023L13.4457 65.4776ZM12.4336 50.4998L15.3015 44.1782C15.3893 43.985 15.518 43.8107 15.6798 43.6661C15.8415 43.5215 16.0328 43.4096 16.2419 43.3374C16.451 43.2651 16.6736 43.2339 16.8959 43.2457C17.1183 43.2576 17.3357 43.3122 17.5349 43.4062L18.2053 43.7227C18.9421 42.7296 19.7974 41.8198 20.7543 41.0113L18.9901 38.7909C18.4676 38.1331 17.7566 37.6303 16.9413 37.3417C16.1259 37.0531 15.2401 36.9909 14.3885 37.1623C13.5369 37.3338 12.755 37.7317 12.1351 38.3092C11.5152 38.8867 11.0832 39.6196 10.8901 40.4214L9 54.4728C10.5161 53.4751 11.7057 52.096 12.4336 50.4921V50.4998Z"/>
</mask>
<path d="M52.7472 27.7938H42.9648V45.4506C47.5681 40.3206 50.9092 34.2902 52.7472 27.7938V27.7938ZM39.6947 27.7938H29.9122C31.7503 34.2902 35.0913 40.3206 39.6947 45.4506V27.7938ZM28.2494 15.861C28.2489 18.8296 28.5506 21.7915 29.1503 24.7056H39.6947V13.8969H28.2494V15.861ZM41.3297 0.217718C39.9265 1.01818 38.7506 2.12904 37.9035 3.45445C37.0563 4.77986 36.5633 6.28002 36.4671 7.8255C38.9197 5.76512 42.089 4.62857 45.3716 4.6323H45.3977C44.5646 2.79484 43.1417 1.25073 41.3297 0.217718V0.217718ZM46.2349 8.44931C46.2349 8.20226 46.2038 7.96292 46.1858 7.7205H45.3683C43.9618 7.71658 42.5698 7.98913 41.2808 8.52079C39.9919 9.05246 38.8342 9.83161 37.8814 10.8087H46.2349V8.44931ZM54.4101 13.8969H42.9648V24.7056H53.5092C54.1089 21.7915 54.4106 18.8296 54.4101 15.861V13.8969ZM85.4759 0.937268V0H84.4834L63.3047 18.5693L65.8129 20.938L85.4759 0.937268ZM64.2203 27.1545L65.996 25.4776L64.6994 24.2532L59.7943 19.6209L58.4977 18.3964L57.5395 19.3012C57.5052 19.7815 57.4774 20.2617 57.4284 20.7403L64.2203 27.1545ZM56.8626 30.882C57.5131 30.882 58.1369 30.638 58.5969 30.2036C59.0568 29.7693 59.3152 29.1801 59.3152 28.5658C59.3152 27.9516 59.0568 27.3624 58.5969 26.9281C58.1369 26.4937 57.5131 26.2497 56.8626 26.2497H56.5046C56.1481 27.8175 55.7121 29.3616 55.1965 30.882H56.8626ZM79.5178 21.707L64.6553 35.7428L70.0623 35.5405L85.1832 21.2545C85.9337 20.5428 86.9096 20.082 87.9628 19.9421L92.0161 19.3954C90.6323 18.8374 89.1453 18.543 87.6407 18.5292C84.5957 18.5376 81.677 19.6794 79.5178 21.707ZM83.4419 65.2012L90.9876 68.05C91.1978 68.1292 91.3883 68.2487 91.5471 68.401C91.7058 68.5533 91.8294 68.735 91.9099 68.9347C91.9905 69.1345 92.0262 69.3478 92.0149 69.5612C92.0037 69.7747 91.9456 69.9836 91.8444 70.1747L88.5743 76.3511C88.4459 76.5909 88.2545 76.7956 88.0184 76.9456L84.4099 79.2123L86.9818 83.261L88.9945 79.4748L95.6442 69.4274C95.8543 69.1081 95.9338 68.7274 95.8679 68.3567C95.802 67.9861 95.5951 67.6508 95.2862 67.4139L82.2352 57.3309C82.0503 57.1881 81.9007 57.0087 81.797 56.8054C81.6933 56.6022 81.6381 56.3799 81.6352 56.1543C81.6333 55.9296 81.6834 55.7071 81.782 55.5026C81.8805 55.298 82.0252 55.1163 82.2058 54.97C83.9965 53.5168 85.2653 51.5745 85.8372 49.4112L90.0099 33.6413C88.6969 33.2439 87.551 32.4641 86.7364 31.4135C85.9219 30.363 85.4806 29.0958 85.4759 27.7938H88.746C88.746 28.6128 89.0905 29.3983 89.7038 29.9775C90.317 30.5566 91.1488 30.882 92.0161 30.882V30.899C92.3184 30.8957 92.6156 30.9723 92.8743 31.1202C93.1329 31.2681 93.3425 31.4814 93.4794 31.7359L97.1158 38.6025C97.2922 38.9343 97.5893 39.195 97.9526 39.3368C98.3159 39.4786 98.7212 39.492 99.0942 39.3745L100 39.0904L97.433 23.3252C97.3661 22.9241 97.1347 22.5641 96.7888 22.3231C96.4452 22.0816 96.0141 21.9788 95.5903 22.0374L88.419 23.0071C88.0676 23.0528 87.7418 23.2063 87.4919 23.4441L71.9198 38.1563C71.6291 38.4306 71.2398 38.5916 70.8292 38.6071L55.4336 39.1862L66.4587 43.3552C66.6582 43.4304 66.8401 43.542 66.994 43.6836C67.1478 43.8251 67.2706 43.994 67.3553 44.1804C67.44 44.3668 67.485 44.5671 67.4877 44.77C67.4905 44.9728 67.4508 45.1742 67.3711 45.3626L61.5209 59.1745C63.8288 59.3735 66.1525 59.3419 68.4535 59.0804C67.891 58.5018 67.3493 57.9053 66.8282 57.2907L66.2118 56.5635L68.7625 54.6333L69.3805 55.3606C73.0909 59.7308 77.9348 63.1207 83.4419 65.2012V65.2012ZM60.9502 86.4696H65.3959L64.2694 82.211C64.1973 81.9421 64.2041 81.6597 64.289 81.3941L69.1385 66.1276L69.3756 62.0481C68.2071 62.1994 67.0337 62.2967 65.8554 62.3399V64.8522C65.8553 64.9894 65.8361 65.1259 65.7982 65.2583L60.9502 82.0442V86.4696ZM61.9035 66.2156C62.1336 65.748 62.1868 65.2201 62.0544 64.7199C61.922 64.2196 61.6119 63.7775 61.1759 63.4671L58.3342 61.4552C58.0465 61.2516 57.8379 60.9641 57.7406 60.6372C57.6434 60.3104 57.6629 59.9624 57.7962 59.647L63.7298 45.639L50.5563 40.6639C49.7191 42.0021 48.8117 43.3074 47.8339 44.5797L55.1409 48.0215C55.5081 48.1945 55.7929 48.4916 55.9389 48.8537C56.0849 49.2158 56.0813 49.6166 55.929 49.9763L50.1017 63.7312L61.9035 66.2156ZM46.2577 55.5876C46.4173 55.5879 46.5759 55.6103 46.7286 55.654L49.6521 56.4863L52.3319 50.1555L45.7918 47.0673C44.7519 48.2516 43.6531 49.4004 42.4857 50.5013C42.1791 50.7908 41.7633 50.9534 41.3297 50.9534C40.8962 50.9534 40.4804 50.7908 40.1737 50.5013C39.4331 49.8034 38.7284 49.0808 38.0384 48.3489C37.9792 50.8253 37.4704 53.2737 36.5341 55.5876H46.2577ZM40.9847 82.4333C41.2082 82.7043 41.3296 83.0379 41.3297 83.3814V86.4696H47.2355L46.4065 84.121L35.1345 70.4326C34.9528 70.2121 34.8377 69.9491 34.8017 69.6718C34.7657 69.3944 34.8101 69.113 34.9302 68.8576L39.7225 58.6758H34.9808C33.9499 60.367 32.6852 61.9211 31.2202 63.2973L29.9907 69.0938L40.9847 82.4333ZM13.4457 65.4776L10.2639 83.5096V86.4696H14.5346L13.619 83.8693C13.5275 83.6149 13.5094 83.342 13.5667 83.0788L16.8368 67.6378C16.896 67.3567 17.0369 67.0968 17.2437 66.8871C17.4504 66.6774 17.7149 66.5262 18.0075 66.4503L20.2213 65.8806C24.402 64.7967 28.0908 62.4478 30.7223 59.1941C33.3537 55.9403 34.7825 51.9613 34.7895 47.8671H37.5969C35.3825 45.4546 33.4231 42.8435 31.7467 40.0709L31.3478 40.0864C30.4129 40.1204 29.4845 40.2477 28.578 40.4662C25.6784 41.1581 23.1063 42.7444 21.2697 44.9734C19.433 47.2025 18.4368 49.9468 18.4391 52.7712V58.6758C18.4391 59.0099 18.3244 59.335 18.1121 59.6023L13.4457 65.4776ZM12.4336 50.4998L15.3015 44.1782C15.3893 43.985 15.518 43.8107 15.6798 43.6661C15.8415 43.5215 16.0328 43.4096 16.2419 43.3374C16.451 43.2651 16.6736 43.2339 16.8959 43.2457C17.1183 43.2576 17.3357 43.3122 17.5349 43.4062L18.2053 43.7227C18.9421 42.7296 19.7974 41.8198 20.7543 41.0113L18.9901 38.7909C18.4676 38.1331 17.7566 37.6303 16.9413 37.3417C16.1259 37.0531 15.2401 36.9909 14.3885 37.1623C13.5369 37.3338 12.755 37.7317 12.1351 38.3092C11.5152 38.8867 11.0832 39.6196 10.8901 40.4214L9 54.4728C10.5161 53.4751 11.7057 52.096 12.4336 50.4921V50.4998Z" stroke="#CDCDCD" stroke-width="4.56522" mask="url(#path-1-inside-1)"/>
<path d="M6.77071 99.4239H8.05125V117H6.77071V99.4239ZM26.454 103.793C28.0944 103.793 29.3917 104.27 30.3458 105.224C31.2999 106.178 31.777 107.551 31.777 109.342V117H30.5216V109.442C30.5216 107.969 30.1449 106.848 29.3917 106.078C28.6552 105.308 27.6173 104.923 26.2782 104.923C24.7382 104.923 23.5246 105.383 22.6374 106.304C21.7503 107.224 21.3067 108.463 21.3067 110.02V117H20.0512V103.893H21.2565V106.731C21.7084 105.81 22.378 105.09 23.2652 104.571C24.1691 104.052 25.232 103.793 26.454 103.793ZM49.4498 110.924V117H47.6169V110.924L40.5864 99.4239H42.57L48.5961 109.292L54.6222 99.4239H56.4802L49.4498 110.924ZM71.8497 99.4239C74.0927 99.4239 75.8504 99.9596 77.1225 101.031C78.3947 102.102 79.0308 103.575 79.0308 105.45C79.0308 107.325 78.3947 108.798 77.1225 109.869C75.8504 110.924 74.0927 111.451 71.8497 111.451H67.1293V117H65.2712V99.4239H71.8497ZM71.7995 109.819C73.5404 109.819 74.8711 109.442 75.7918 108.689C76.7124 107.919 77.1727 106.839 77.1727 105.45C77.1727 104.027 76.7124 102.939 75.7918 102.186C74.8711 101.416 73.5404 101.031 71.7995 101.031H67.1293V109.819H71.7995ZM92.1518 101.031H85.9751V99.4239H100.187V101.031H94.0099V117H92.1518V101.031Z" fill="#CDCDCD"/>
</svg>
