<svg width="72" height="70" viewBox="0 0 72 70" fill="none" xmlns="http://www.w3.org/2000/svg">
<path d="M33.7688 34.9414C33.7688 25.5611 26.1474 18.0569 16.8844 18.0569C7.62144 18.0569 0 25.6784 0 34.9414C0 44.2043 7.62144 51.8258 16.8844 51.8258C26.1474 51.8258 33.7688 44.3216 33.7688 34.9414ZM14.7739 43.5008C14.7739 42.3283 15.7119 41.3903 16.8844 41.3903C18.057 41.3903 18.995 42.3283 18.995 43.5008C18.995 44.6734 18.057 45.6114 16.8844 45.6114C15.7119 45.6114 14.7739 44.6734 14.7739 43.5008ZM14.3049 36.3484C14.3049 34.9414 15.4774 33.7688 16.8844 33.7688C18.2915 33.7688 19.464 34.9414 19.464 36.3484C19.464 37.7554 18.2915 38.928 16.8844 38.928C15.4774 38.928 14.3049 37.7554 14.3049 36.3484ZM24.3886 32.1273C24.2714 32.2446 24.1541 32.3618 23.9196 32.3618L16.6499 31.072L9.73199 32.3618C9.61474 32.3618 9.38023 32.3618 9.26298 32.1273C9.14573 32.01 9.26298 31.7755 9.38023 31.6583L16.5327 24.5059C16.6499 24.3886 16.6499 24.3886 16.7672 24.3886C16.8844 24.3886 17.0017 24.3886 17.0017 24.5059L24.1541 31.6583C24.3886 31.7755 24.5059 32.01 24.3886 32.1273Z" fill="#F4F4F4"/>
<path d="M69.6482 17.4707L53.3501 1.52429C52.4121 0.586265 51.1223 0 49.7153 0H28.0235C20.6365 0 14.5394 6.09715 14.5394 13.4841V15.9464C15.2429 15.8291 16.0637 15.8291 16.8844 15.8291C17.7052 15.8291 18.4087 15.8291 19.2295 15.9464V13.4841C19.2295 8.55946 23.2161 4.57286 28.1407 4.57286H49.8325C49.9498 4.57286 50.067 4.57286 50.1843 4.69012L50.4188 4.92462V12.0771C50.536 13.0151 50.7705 13.9531 51.1223 14.8911C52.6466 18.1742 55.8124 20.6365 59.4472 20.9883C59.9163 20.9883 60.268 21.1055 60.737 21.1055L66.9514 21.34C67.0687 21.5745 67.0687 21.809 67.0687 21.9263V56.5159C67.0687 61.4405 63.0821 65.4271 58.1575 65.4271H28.0235C23.0988 65.4271 19.1122 61.4405 19.1122 56.5159V53.9363C18.4087 54.0536 17.5879 54.0536 16.7672 54.0536C15.9464 54.0536 15.2429 54.0536 14.4221 53.9363V56.5159C14.4221 63.9029 20.5193 70 27.9062 70H58.0402C65.4271 70 71.5243 63.9029 71.5243 56.5159V21.9263C71.5243 20.2848 70.8208 18.6432 69.6482 17.4707Z" fill="#F4F4F4"/>
</svg>
